<?xml version="1.0" encoding="UTF-8" standalone="no"?>
<!-- Created with Inkscape (http://www.inkscape.org/) -->

<svg
   xmlns:dc="http://purl.org/dc/elements/1.1/"
   xmlns:cc="http://creativecommons.org/ns#"
   xmlns:rdf="http://www.w3.org/1999/02/22-rdf-syntax-ns#"
   xmlns:svg="http://www.w3.org/2000/svg"
   xmlns="http://www.w3.org/2000/svg"
   xmlns:sodipodi="http://sodipodi.sourceforge.net/DTD/sodipodi-0.dtd"
   xmlns:inkscape="http://www.inkscape.org/namespaces/inkscape"
   width="256.00003mm"
   height="255.99985mm"
   viewBox="0 0 256.00004 255.99985"
   version="1.1"
   id="svg1013"
   inkscape:version="0.92.2 5c3e80d, 2017-08-06"
   sodipodi:docname="logo.svg">
  <defs
     id="defs1007" />
  <sodipodi:namedview
     id="base"
     pagecolor="#ffffff"
     bordercolor="#666666"
     borderopacity="1.0"
     inkscape:pageopacity="0.0"
     inkscape:pageshadow="2"
     inkscape:zoom="0.35"
     inkscape:cx="4.1075366"
     inkscape:cy="1008.6352"
     inkscape:document-units="mm"
     inkscape:current-layer="layer1"
     showgrid="false"
     inkscape:window-width="1920"
     inkscape:window-height="1003"
     inkscape:window-x="0"
     inkscape:window-y="0"
     inkscape:window-maximized="1"
     fit-margin-top="42"
     fit-margin-left="42"
     fit-margin-right="42"
     fit-margin-bottom="42" />
  <metadata
     id="metadata1010">
    <rdf:RDF>
      <cc:Work
         rdf:about="">
        <dc:format>image/svg+xml</dc:format>
        <dc:type
           rdf:resource="http://purl.org/dc/dcmitype/StillImage" />
        <dc:title></dc:title>
      </cc:Work>
    </rdf:RDF>
  </metadata>
  <g
     inkscape:label="Layer 1"
     inkscape:groupmode="layer"
     id="layer1"
     transform="translate(23.765357,8.5619077)">
    <g
       style="fill:#01babc;fill-opacity:1;stroke:none"
       transform="matrix(0.03217734,0,0,-0.03216858,-40.235539,239.75378)"
       id="g90"
       inkscape:export-xdpi="360.22281"
       inkscape:export-ydpi="360.22281">
      <path
         inkscape:connector-curvature="0"
         d="m 4295,6409 c -77,-4 -158,-12 -180,-18 -22,-6 -58,-11 -79,-11 -40,0 -142,-21 -206,-42 -19,-6 -51,-15 -70,-19 -19,-4 -60,-17 -90,-29 -30,-12 -64,-24 -75,-27 -11,-3 -33,-11 -50,-18 -16,-7 -50,-21 -75,-31 -54,-21 -294,-138 -332,-162 -15,-9 -54,-34 -87,-54 -119,-73 -344,-252 -455,-364 -96,-96 -356,-417 -356,-440 0,-3 -13,-25 -28,-48 -15,-22 -31,-48 -35,-56 -4,-8 -16,-28 -27,-45 -11,-16 -23,-37 -26,-45 -4,-8 -33,-70 -65,-137 -33,-67 -59,-130 -59,-141 0,-10 -5,-23 -11,-29 -6,-6 -14,-26 -19,-44 -5,-19 -20,-68 -34,-109 -14,-41 -32,-102 -40,-135 -8,-33 -22,-87 -30,-121 -9,-33 -16,-74 -16,-92 0,-17 -7,-64 -16,-104 -22,-104 -23,-570 0,-700 36,-214 42,-244 62,-318 9,-30 22,-80 31,-110 8,-30 21,-68 28,-85 7,-16 16,-39 18,-50 12,-46 42,-116 91,-220 30,-60 56,-117 60,-125 3,-8 15,-28 26,-45 11,-16 24,-39 30,-50 6,-11 19,-33 30,-50 11,-16 23,-37 27,-45 25,-54 262,-348 359,-444 110,-111 324,-282 452,-362 35,-21 75,-47 90,-56 43,-27 327,-168 358,-178 16,-4 54,-18 84,-30 67,-25 154,-53 235,-74 33,-8 87,-22 121,-30 33,-9 77,-16 97,-16 19,0 66,-7 104,-16 99,-23 607,-23 706,0 38,9 85,16 104,16 20,0 64,7 97,16 34,8 88,22 121,30 81,21 168,49 235,74 30,12 68,26 84,30 51,16 329,159 422,218 152,95 320,227 468,367 12,11 55,58 96,105 41,47 78,87 81,90 11,10 186,246 192,260 4,8 16,29 27,45 11,17 24,39 30,50 6,11 19,34 30,50 11,17 23,37 26,45 4,8 33,70 65,137 33,67 59,130 59,141 0,10 5,23 11,29 6,6 14,26 19,44 5,19 20,68 34,109 14,41 32,102 40,135 8,33 22,87 30,121 9,33 16,74 16,92 0,17 7,64 16,104 22,106 22,594 0,691 -9,38 -16,85 -16,104 0,20 -7,64 -16,97 -8,34 -22,88 -30,121 -8,33 -26,94 -40,135 -14,41 -29,90 -34,109 -5,18 -13,38 -19,44 -6,6 -11,19 -11,30 0,18 -143,314 -178,369 -9,15 -34,54 -54,87 -69,114 -226,311 -353,445 -100,105 -343,298 -492,390 -90,56 -312,169 -393,200 -25,10 -58,24 -73,32 -16,8 -36,14 -46,14 -9,0 -25,6 -36,14 -11,7 -31,16 -45,19 -14,3 -38,10 -55,15 -104,35 -261,72 -307,72 -20,0 -69,6 -109,14 -92,18 -358,25 -544,15 z m 515,-109 c 145,-22 258,-47 396,-86 28,-8 60,-14 70,-14 11,0 29,-7 40,-15 10,-8 28,-15 40,-15 11,0 29,-7 40,-15 10,-8 27,-15 36,-15 9,0 29,-7 45,-15 15,-8 89,-44 163,-80 154,-75 306,-171 470,-297 77,-59 316,-300 375,-378 27,-36 52,-67 55,-70 7,-6 102,-139 115,-162 6,-9 30,-50 54,-89 38,-63 107,-194 125,-239 3,-8 10,-22 15,-30 8,-14 27,-61 56,-140 7,-19 20,-53 28,-75 14,-39 29,-89 60,-205 17,-62 40,-191 59,-325 17,-118 17,-475 0,-590 -23,-158 -44,-269 -58,-310 -8,-23 -14,-50 -14,-60 0,-20 -18,-81 -47,-160 -65,-174 -73,-193 -126,-305 -43,-90 -179,-325 -197,-340 -3,-3 -22,-28 -42,-57 -120,-169 -328,-377 -530,-529 -76,-57 -140,-104 -142,-104 -3,0 -22,-12 -43,-26 -21,-14 -47,-30 -58,-35 -11,-5 -33,-18 -50,-28 -55,-35 -297,-151 -315,-151 -5,0 -24,-6 -42,-14 -63,-27 -114,-44 -178,-61 -36,-9 -87,-23 -115,-30 -151,-41 -177,-45 -447,-67 -126,-9 -190,-9 -315,0 -271,22 -297,26 -448,67 -27,7 -79,21 -115,30 -64,17 -115,34 -178,61 -18,8 -37,14 -42,14 -18,0 -260,116 -315,151 -16,10 -39,23 -50,28 -11,5 -37,21 -58,35 -21,14 -40,26 -42,26 -5,0 -147,101 -155,110 -3,3 -34,28 -70,55 -91,69 -334,315 -409,416 -34,46 -69,92 -76,101 -8,10 -45,68 -83,130 -87,144 -165,304 -217,448 -7,19 -20,53 -28,75 -14,39 -29,89 -60,205 -9,30 -22,98 -31,150 -8,52 -20,127 -27,165 -18,110 -23,396 -9,515 23,203 29,246 43,310 24,107 61,242 83,303 24,65 44,116 60,160 27,69 117,247 165,325 24,40 49,81 54,90 13,23 108,156 115,162 3,3 28,34 55,70 54,71 227,249 316,326 165,143 326,249 529,349 74,36 148,72 163,80 16,8 36,15 45,15 9,0 26,7 36,15 11,8 29,15 40,15 12,0 30,7 40,15 11,8 29,15 40,15 10,0 42,6 70,14 143,41 283,71 371,82 33,4 87,10 120,15 85,10 455,3 545,-11 z"
         id="path4-3"
         style="fill:#01babc;fill-opacity:1" />
      <path
         inkscape:connector-curvature="0"
         d="m 4458,6228 c -21,-17 -13,-65 13,-79 27,-14 55,4 62,38 6,30 -13,53 -43,53 -9,0 -24,-6 -32,-12 z"
         id="path6-6"
         style="fill:#01babc;fill-opacity:1" />
      <path
         inkscape:connector-curvature="0"
         d="m 4033,6184 c -28,-31 -28,-29 -3,-54 22,-22 59,-27 64,-7 16,48 15,65 -2,71 -9,3 -21,8 -27,11 -5,2 -20,-7 -32,-21 z"
         id="path8-75"
         style="fill:#01babc;fill-opacity:1" />
      <path
         inkscape:connector-curvature="0"
         d="m 4893,6197 c -22,-11 -23,-24 -7,-74 5,-20 42,-15 64,7 11,11 20,22 20,24 0,7 -47,56 -51,55 -2,-1 -14,-6 -26,-12 z"
         id="path10-3"
         style="fill:#01babc;fill-opacity:1" />
      <path
         inkscape:connector-curvature="0"
         d="m 3614,6065 c -15,-32 -15,-35 4,-55 19,-21 21,-21 46,-5 14,10 27,24 28,31 0,8 1,19 2,25 1,6 -14,17 -31,24 -32,14 -33,13 -49,-20 z"
         id="path12-5"
         style="fill:#01babc;fill-opacity:1" />
      <path
         inkscape:connector-curvature="0"
         d="m 5312,6084 c -24,-10 -32,-19 -28,-30 3,-9 6,-19 6,-24 0,-4 12,-15 26,-25 25,-16 27,-16 46,5 19,20 19,23 3,56 -9,18 -17,34 -18,33 -1,0 -17,-7 -35,-15 z"
         id="path14-6"
         style="fill:#01babc;fill-opacity:1" />
      <path
         inkscape:connector-curvature="0"
         d="m 3223,5881 -22,-28 28,-20 c 24,-19 30,-19 54,-7 30,16 34,32 15,56 -24,31 -53,30 -75,-1 z"
         id="path16-2"
         style="fill:#01babc;fill-opacity:1" />
      <path
         inkscape:connector-curvature="0"
         d="m 5710,5903 c -19,-7 -40,-33 -40,-50 0,-7 12,-19 27,-27 24,-12 30,-12 54,7 l 28,20 -22,28 c -22,30 -23,31 -47,22 z"
         id="path18-9"
         style="fill:#01babc;fill-opacity:1" />
      <path
         inkscape:connector-curvature="0"
         d="m 2870,5628 c 1,-23 8,-38 24,-50 22,-16 24,-16 46,9 18,21 20,30 11,49 -8,19 -18,24 -46,24 -33,0 -35,-2 -35,-32 z"
         id="path20-1"
         style="fill:#01babc;fill-opacity:1" />
      <path
         inkscape:connector-curvature="0"
         d="m 6029,5636 c -9,-19 -7,-28 11,-49 22,-25 24,-25 46,-9 16,12 23,27 24,50 0,30 -2,32 -35,32 -28,0 -38,-5 -46,-24 z"
         id="path22-2"
         style="fill:#01babc;fill-opacity:1" />
      <path
         inkscape:connector-curvature="0"
         d="m 4285,5576 c -108,-12 -186,-27 -255,-48 -19,-6 -51,-15 -70,-19 -34,-7 -66,-17 -145,-47 -52,-19 -231,-107 -270,-132 -16,-11 -36,-23 -44,-26 -71,-35 -238,-172 -339,-279 -76,-80 -219,-259 -235,-295 -4,-8 -16,-28 -27,-45 -27,-43 -120,-233 -120,-248 0,-6 -7,-21 -15,-31 -8,-11 -15,-28 -15,-38 0,-9 -6,-32 -14,-50 -7,-18 -21,-58 -29,-88 -104,-370 -81,-819 59,-1148 8,-18 14,-37 14,-42 0,-13 95,-206 120,-245 11,-16 23,-37 27,-45 21,-45 170,-228 257,-316 88,-87 271,-236 316,-257 8,-4 29,-16 45,-27 38,-24 217,-112 270,-132 103,-40 124,-47 180,-62 218,-57 423,-75 647,-57 147,12 211,23 343,57 83,22 176,57 280,104 33,15 67,31 75,34 8,3 29,15 45,26 17,11 37,23 45,27 75,36 256,178 366,287 87,88 236,271 257,316 4,8 16,29 26,45 27,41 121,232 121,245 0,5 6,24 14,42 66,155 100,305 118,521 19,235 -16,513 -93,737 -6,19 -18,47 -25,62 -8,14 -14,31 -14,37 0,13 -93,203 -121,246 -10,17 -22,37 -26,45 -4,8 -40,59 -80,112 -90,119 -227,265 -308,326 -33,25 -62,49 -65,52 -8,9 -104,75 -120,83 -8,4 -28,16 -45,27 -94,60 -324,160 -415,179 -19,4 -51,13 -70,19 -107,34 -336,63 -479,61 -42,-1 -125,-7 -186,-13 z m 510,-112 c 90,-17 174,-40 223,-60 18,-8 39,-14 47,-14 8,0 31,-7 52,-16 63,-27 167,-75 183,-85 8,-5 24,-14 35,-19 11,-6 34,-19 50,-30 17,-11 37,-23 45,-27 8,-4 60,-40 115,-82 113,-85 251,-219 315,-307 24,-32 46,-61 50,-64 9,-8 76,-111 99,-155 12,-22 26,-47 31,-55 15,-27 68,-144 85,-190 9,-25 23,-60 31,-78 8,-18 14,-43 14,-55 0,-12 6,-39 14,-62 7,-22 21,-80 31,-129 24,-124 24,-469 1,-588 -33,-165 -92,-352 -140,-443 -14,-26 -26,-51 -26,-56 0,-17 -116,-203 -148,-238 -8,-8 -24,-30 -37,-50 -38,-62 -215,-234 -320,-312 -154,-115 -278,-185 -435,-244 -25,-9 -60,-23 -78,-31 -18,-8 -40,-14 -49,-14 -9,0 -39,-6 -67,-14 -130,-36 -240,-49 -426,-49 -186,0 -296,13 -426,49 -28,8 -58,14 -67,14 -9,0 -31,6 -49,14 -18,8 -53,22 -78,31 -235,88 -451,232 -642,428 -60,60 -108,113 -108,117 0,4 -17,29 -39,55 -40,49 -131,198 -164,269 -10,22 -23,49 -28,58 -35,66 -94,266 -124,416 -25,124 -23,472 3,602 26,125 41,186 59,235 9,22 22,58 30,80 8,22 28,67 44,100 16,33 29,63 29,67 0,12 124,214 141,228 3,3 24,31 47,62 66,91 208,229 317,310 55,41 107,77 115,81 8,4 29,16 45,27 17,11 39,24 50,30 11,5 27,14 35,19 16,10 120,58 183,85 21,9 44,16 52,16 8,0 29,6 47,14 41,17 125,41 203,57 141,30 478,31 630,3 z"
         id="path24-7"
         style="fill:#01babc;fill-opacity:1" />
      <path
         inkscape:connector-curvature="0"
         d="m 5303,4933 c -32,-38 -77,-90 -99,-118 -21,-27 -41,-52 -44,-55 -5,-5 -155,-192 -177,-220 -6,-8 -31,-40 -55,-70 -24,-30 -56,-75 -73,-100 -73,-112 -78,-138 -44,-235 11,-32 18,-68 15,-80 -3,-13 -26,-50 -51,-84 -25,-33 -45,-64 -45,-67 0,-3 -19,-31 -43,-62 -24,-31 -47,-64 -50,-72 -17,-37 -136,-195 -149,-198 -8,-2 -29,19 -49,50 -20,29 -57,85 -84,123 -27,39 -86,125 -132,193 l -83,122 25,74 c 14,41 25,92 25,113 0,39 -29,168 -48,213 -6,14 -13,32 -16,40 -4,8 -15,29 -26,45 -11,17 -24,41 -30,54 -11,25 -158,175 -227,232 -40,32 -138,85 -226,123 -51,21 -126,20 -153,-2 -42,-35 -54,-75 -54,-174 1,-133 28,-234 107,-393 73,-148 188,-273 298,-324 101,-46 118,-51 190,-51 h 74 l 55,-77 c 30,-43 83,-116 116,-163 33,-47 87,-122 120,-168 36,-48 60,-92 60,-107 0,-33 -298,-430 -406,-541 -44,-45 -128,-123 -189,-174 -135,-115 -164,-145 -182,-189 -18,-43 -9,-139 19,-192 16,-32 25,-38 59,-41 22,-2 68,-1 101,2 56,6 64,10 97,47 20,22 47,67 59,99 13,32 30,71 38,86 8,14 14,35 14,45 0,11 7,28 15,39 8,10 15,28 15,40 0,11 7,29 15,40 8,10 15,25 15,32 0,28 90,194 165,307 22,33 42,65 45,70 3,6 40,63 83,128 79,117 109,141 124,100 3,-10 19,-34 35,-54 15,-20 28,-40 28,-44 0,-4 12,-24 28,-44 31,-41 48,-67 62,-96 6,-11 32,-54 59,-95 50,-76 134,-237 166,-320 9,-25 23,-60 31,-78 8,-18 14,-39 14,-47 0,-7 7,-26 15,-42 7,-15 22,-50 32,-76 10,-27 36,-69 59,-93 l 40,-44 h 90 c 49,0 94,4 101,8 27,17 53,97 53,164 v 67 l -67,68 c -38,38 -102,97 -143,133 -178,151 -271,259 -535,615 -52,70 -52,72 -26,118 14,23 51,78 83,122 173,237 213,293 230,321 17,29 23,31 91,37 81,6 130,23 169,60 21,20 148,203 168,242 3,6 17,28 31,50 14,22 29,47 33,55 8,17 19,35 57,95 14,22 29,47 32,55 4,8 16,29 27,45 11,17 24,39 30,50 6,11 19,34 29,50 36,55 61,105 61,120 0,21 -19,19 -27,-2 -4,-10 -25,-43 -48,-73 -42,-55 -141,-194 -199,-280 -17,-25 -34,-49 -38,-55 -42,-52 -108,-146 -108,-153 0,-16 -69,-84 -80,-77 -18,11 -11,46 18,84 15,20 32,44 37,53 9,15 35,53 169,246 28,41 56,81 61,90 6,9 22,33 38,53 15,20 27,42 27,47 0,6 6,15 13,19 12,8 32,36 44,63 3,8 12,19 20,23 14,9 18,37 5,37 -10,0 -52,-55 -52,-69 0,-5 -7,-11 -15,-15 -8,-3 -15,-12 -15,-20 0,-7 -7,-16 -15,-20 -8,-3 -15,-11 -15,-18 0,-8 -13,-28 -30,-46 -16,-18 -30,-35 -30,-38 0,-4 -116,-163 -140,-191 -5,-7 -10,-15 -10,-18 0,-3 -29,-45 -65,-93 -35,-48 -71,-97 -80,-109 -19,-27 -55,-31 -55,-7 0,16 24,55 125,199 73,106 209,305 220,323 6,9 22,33 38,53 15,20 27,42 27,47 0,6 6,15 13,19 16,11 42,61 34,69 -7,7 -95,-102 -107,-133 -5,-13 -14,-23 -20,-23 -5,0 -10,-7 -10,-15 0,-8 -5,-15 -10,-15 -6,0 -14,-8 -18,-18 -4,-10 -40,-63 -80,-118 -40,-54 -108,-148 -151,-209 -107,-149 -109,-151 -129,-132 -13,14 -7,27 61,129 42,62 103,151 136,198 120,171 176,252 186,268 6,10 20,32 33,49 12,17 22,34 22,37 0,18 -24,-1 -77,-61 z"
         id="path26-0"
         style="fill:#01babc;fill-opacity:1" />
      <path
         inkscape:connector-curvature="0"
         d="m 4202,4958 c -16,-16 -15,-35 7,-104 28,-85 45,-115 93,-161 24,-22 53,-52 65,-67 23,-26 25,-26 150,-26 h 128 l 60,63 c 33,34 68,73 77,86 12,17 23,22 38,18 31,-8 85,23 100,56 17,39 0,74 -53,112 l -42,30 -305,3 c -233,2 -308,0 -318,-10 z m 698,-106 c 0,-7 -11,-25 -24,-39 -27,-29 -56,-26 -56,6 0,27 19,74 33,83 13,8 46,-28 47,-50 z"
         id="path28-9"
         style="fill:#01babc;fill-opacity:1" />
      <path
         inkscape:connector-curvature="0"
         d="m 4453,2863 c -64,-8 -91,-81 -59,-158 29,-68 62,-88 131,-78 37,5 48,11 65,40 11,19 20,43 20,54 0,31 -29,91 -57,122 -26,26 -34,28 -100,20 z"
         id="path30-36"
         style="fill:#01babc;fill-opacity:1" />
      <path
         inkscape:connector-curvature="0"
         d="m 4272,2603 c -21,-8 -52,-79 -52,-118 0,-39 19,-83 44,-104 9,-8 38,-15 65,-17 45,-3 52,-1 75,27 22,26 26,40 26,97 -1,76 -24,119 -60,109 -11,-3 -23,-1 -26,4 -5,10 -50,11 -72,2 z"
         id="path32-0"
         style="fill:#01babc;fill-opacity:1" />
      <path
         inkscape:connector-curvature="0"
         d="m 4617,2580 c -46,-36 -68,-84 -65,-137 3,-40 6,-48 23,-48 11,0 28,-12 37,-27 20,-32 27,-33 71,-14 66,28 111,118 88,174 -27,65 -104,91 -154,52 z"
         id="path34-6"
         style="fill:#01babc;fill-opacity:1" />
      <path
         inkscape:connector-curvature="0"
         d="m 2577,5353 c -16,-15 -7,-68 14,-81 18,-12 23,-10 45,13 29,31 29,37 6,58 -19,17 -53,22 -65,10 z"
         id="path36-2"
         style="fill:#01babc;fill-opacity:1" />
      <path
         inkscape:connector-curvature="0"
         d="m 6337,5342 c -22,-24 -22,-26 7,-57 22,-23 27,-25 46,-13 16,10 20,21 18,48 -3,29 -7,35 -29,38 -15,2 -32,-5 -42,-16 z"
         id="path38-61"
         style="fill:#01babc;fill-opacity:1" />
      <path
         inkscape:connector-curvature="0"
         d="m 2365,5010 c -3,-5 -15,-10 -25,-10 -10,0 -21,-4 -25,-10 -10,-16 34,-79 56,-80 4,0 14,11 23,25 15,23 15,28 1,55 -17,33 -21,35 -30,20 z"
         id="path40-87"
         style="fill:#01babc;fill-opacity:1" />
      <path
         inkscape:connector-curvature="0"
         d="m 6586,4995 c -18,-27 -15,-55 9,-75 18,-15 46,2 62,37 14,30 9,43 -16,43 -9,0 -22,5 -28,11 -7,7 -15,2 -27,-16 z"
         id="path42-9"
         style="fill:#01babc;fill-opacity:1" />
      <path
         inkscape:connector-curvature="0"
         d="m 2153,4610 c -27,-11 -27,-9 -7,-48 21,-44 58,-44 73,-1 18,51 -10,71 -66,49 z"
         id="path44-2"
         style="fill:#01babc;fill-opacity:1" />
      <path
         inkscape:connector-curvature="0"
         d="m 6761,4606 c -8,-9 -8,-21 0,-45 15,-43 52,-43 74,1 15,30 15,34 -2,45 -22,17 -58,16 -72,-1 z"
         id="path46-0"
         style="fill:#01babc;fill-opacity:1" />
      <path
         inkscape:connector-curvature="0"
         d="m 2042,4198 c -19,-10 -22,-17 -16,-42 8,-41 13,-45 51,-39 26,4 33,11 38,35 5,22 2,33 -12,43 -21,17 -30,17 -61,3 z"
         id="path48-23"
         style="fill:#01babc;fill-opacity:1" />
      <path
         inkscape:connector-curvature="0"
         d="m 6877,4195 c -14,-10 -17,-21 -12,-43 5,-24 12,-31 38,-35 38,-6 43,-2 51,39 6,26 3,32 -19,42 -32,15 -36,15 -58,-3 z"
         id="path50-7"
         style="fill:#01babc;fill-opacity:1" />
      <path
         inkscape:connector-curvature="0"
         d="m 1996,3758 c -14,-27 -14,-32 1,-54 9,-14 21,-22 27,-19 6,3 19,8 28,11 14,5 37,62 26,67 -1,2 -18,8 -35,14 -31,10 -33,9 -47,-19 z"
         id="path52-5"
         style="fill:#01babc;fill-opacity:1" />
      <path
         inkscape:connector-curvature="0"
         d="m 6935,3777 c -16,-6 -32,-12 -33,-13 -10,-7 12,-63 26,-68 9,-3 22,-8 28,-11 6,-3 18,5 27,19 15,22 15,27 1,55 -9,17 -16,31 -17,30 -1,-1 -15,-6 -32,-12 z"
         id="path54-9"
         style="fill:#01babc;fill-opacity:1" />
      <path
         inkscape:connector-curvature="0"
         d="m 2027,3326 c -16,-24 -16,-26 10,-45 43,-35 74,-23 76,30 2,32 0,34 -34,37 -29,2 -39,-2 -52,-22 z"
         id="path56-2"
         style="fill:#01babc;fill-opacity:1" />
      <path
         inkscape:connector-curvature="0"
         d="m 6864,3335 c -10,-25 5,-63 26,-70 13,-4 31,2 50,15 29,20 29,22 14,46 -19,28 -81,35 -90,9 z"
         id="path58-2"
         style="fill:#01babc;fill-opacity:1" />
      <path
         inkscape:connector-curvature="0"
         d="m 2150,2918 c -25,-27 -25,-37 -2,-54 23,-18 38,-17 67,2 l 24,16 -21,29 c -26,35 -40,36 -68,7 z"
         id="path60-8"
         style="fill:#01babc;fill-opacity:1" />
      <path
         inkscape:connector-curvature="0"
         d="m 6762,2911 -21,-29 25,-17 c 22,-14 31,-15 55,-5 34,15 36,28 9,58 -28,29 -42,28 -68,-7 z"
         id="path62-9"
         style="fill:#01babc;fill-opacity:1" />
      <path
         inkscape:connector-curvature="0"
         d="m 2343,2543 c -30,-20 -29,-53 3,-76 24,-18 25,-18 48,4 l 23,22 -19,34 c -23,37 -24,38 -55,16 z"
         id="path64-7"
         style="fill:#01babc;fill-opacity:1" />
      <path
         inkscape:connector-curvature="0"
         d="m 6579,2526 c -15,-32 -14,-35 8,-56 22,-21 23,-21 47,-3 32,23 33,56 1,77 -33,22 -38,20 -56,-18 z"
         id="path66-3"
         style="fill:#01babc;fill-opacity:1" />
      <path
         inkscape:connector-curvature="0"
         d="m 2587,2192 c -25,-28 -22,-68 6,-76 32,-9 33,-8 51,19 16,24 16,27 -1,50 -22,29 -35,31 -56,7 z"
         id="path68-6"
         style="fill:#01babc;fill-opacity:1" />
      <path
         inkscape:connector-curvature="0"
         d="m 6337,2185 c -17,-23 -17,-26 -1,-51 13,-18 23,-24 38,-20 12,3 24,6 29,6 15,0 6,57 -11,73 -25,22 -34,21 -55,-8 z"
         id="path70-1"
         style="fill:#01babc;fill-opacity:1" />
      <path
         inkscape:connector-curvature="0"
         d="m 2882,1885 c -19,-19 -21,-27 -12,-49 8,-23 15,-27 42,-24 24,2 34,9 41,31 7,23 5,31 -15,47 -28,23 -27,23 -56,-5 z"
         id="path72-2"
         style="fill:#01babc;fill-opacity:1" />
      <path
         inkscape:connector-curvature="0"
         d="m 6041,1889 c -21,-17 -23,-24 -15,-47 7,-21 17,-28 42,-30 27,-3 34,1 42,24 9,23 7,30 -15,50 -14,13 -27,24 -28,24 -1,-1 -13,-10 -26,-21 z"
         id="path74-9"
         style="fill:#01babc;fill-opacity:1" />
      <path
         inkscape:connector-curvature="0"
         d="m 3226,1641 c -15,-16 -15,-21 -1,-54 14,-34 17,-36 40,-25 14,6 32,24 40,40 15,31 17,29 -52,53 -6,2 -18,-4 -27,-14 z"
         id="path76-3"
         style="fill:#01babc;fill-opacity:1" />
      <path
         inkscape:connector-curvature="0"
         d="m 5683,1640 c -21,-8 -21,-11 -8,-38 8,-16 26,-34 40,-40 23,-11 26,-9 40,25 23,55 -9,78 -72,53 z"
         id="path78-1"
         style="fill:#01babc;fill-opacity:1" />
      <path
         inkscape:connector-curvature="0"
         d="m 3615,1450 c -14,-27 -14,-32 1,-55 9,-14 19,-25 23,-25 14,1 49,36 55,57 5,17 0,24 -25,37 -40,20 -36,21 -54,-14 z"
         id="path80-9"
         style="fill:#01babc;fill-opacity:1" />
      <path
         inkscape:connector-curvature="0"
         d="m 5307,1463 c -32,-17 -30,-46 7,-75 28,-23 31,-22 49,6 13,20 14,29 4,55 -13,34 -19,36 -60,14 z"
         id="path82-47"
         style="fill:#01babc;fill-opacity:1" />
      <path
         inkscape:connector-curvature="0"
         d="m 4032,1348 c -16,-16 -15,-49 2,-70 14,-20 36,-24 36,-8 0,6 8,10 18,10 25,0 32,9 22,29 -5,9 -11,24 -14,34 -6,20 -46,23 -64,5 z"
         id="path84-8"
         style="fill:#01babc;fill-opacity:1" />
      <path
         inkscape:connector-curvature="0"
         d="m 4884,1343 c -3,-10 -9,-25 -14,-34 -10,-20 -3,-29 22,-29 10,0 18,-4 18,-10 0,-16 22,-12 36,8 17,21 18,54 2,70 -18,18 -58,15 -64,-5 z"
         id="path86-4"
         style="fill:#01babc;fill-opacity:1" />
      <path
         inkscape:connector-curvature="0"
         d="m 4452,1291 -21,-29 24,-16 c 13,-9 29,-16 35,-16 6,0 22,7 35,16 l 24,16 -21,29 c -12,16 -29,29 -38,29 -9,0 -26,-13 -38,-29 z"
         id="path88-5"
         style="fill:#01babc;fill-opacity:1" />
    </g>
  </g>
</svg>
